<svg width="22" height="24" viewBox="0 0 22 24" fill="none" xmlns="http://www.w3.org/2000/svg">
<path fill-rule="evenodd" clip-rule="evenodd" d="M10.9996 14.3333C16.7886 14.3333 21.4996 18.5204 21.4996 23.6666H19.1662C19.1662 19.8061 15.5029 16.6666 10.9996 16.6666C6.49624 16.6666 2.83291 19.8061 2.83291 23.6666H0.499573C0.499573 18.5204 5.21057 14.3333 10.9996 14.3333ZM10.9996 0.333252C14.2212 0.333252 16.8329 2.94492 16.8329 6.16659C16.829 9.38665 14.2196 11.9961 10.9996 11.9999C7.77791 11.9999 5.16624 9.38825 5.16624 6.16659C5.16624 2.94492 7.77791 0.333252 10.9996 0.333252ZM10.9996 2.66659C9.06658 2.66659 7.49957 4.23359 7.49957 6.16659C7.49957 8.09958 9.06658 9.66658 10.9996 9.66658C12.9326 9.66658 14.4996 8.09958 14.4996 6.16659C14.4996 4.23359 12.9326 2.66659 10.9996 2.66659Z" fill="black" fill-opacity="0.9"/>
</svg>
